<svg width="18" height="17" viewBox="0 0 18 17" fill="none" xmlns="http://www.w3.org/2000/svg">
<path d="M2.47241 10.9803C2.96612 10.4619 3.53389 10.0723 4.29699 10.1802C4.58034 10.2199 4.88729 10.3111 5.1159 10.4742C5.8935 11.0297 6.77949 11.3173 7.66817 11.6151C7.87746 11.6854 8.08943 11.7466 8.29604 11.8233C8.71462 11.9784 8.92337 12.4577 8.79082 12.9417C8.66685 13.3968 8.31804 13.6087 7.84365 13.5202L6.56161 13.2819C6.37164 13.2471 6.24661 13.3136 6.22031 13.4639C6.19401 13.6141 6.28041 13.7134 6.47897 13.7504C6.91258 13.8325 7.35155 13.8926 7.77925 13.9978C8.58421 14.1969 9.35375 13.4842 9.31404 12.595C9.30921 12.4829 9.30277 12.3573 9.25126 12.2629C9.12246 12.0283 9.21745 11.8792 9.3822 11.7128C9.65052 11.4445 9.89684 11.1493 10.1539 10.8676C10.5145 10.4737 11.0291 10.4984 11.3345 10.9341C11.6296 11.3522 11.6329 11.7885 11.3946 12.2387C10.5419 13.8486 9.33819 15.1317 7.81252 16.1186C7.69135 16.2023 7.56597 16.2796 7.43687 16.3504C7.07303 16.5372 6.69309 16.5689 6.30993 16.4116C5.6123 16.1229 4.91788 15.8261 4.22454 15.5272C4.16011 15.5002 4.10793 15.4503 4.07804 15.3872C3.92027 14.9332 3.78021 14.4749 3.6219 14.0204C3.35358 13.2505 3.07935 12.4827 2.79923 11.7171C2.71444 11.4735 2.59155 11.2422 2.47241 10.9803Z" fill="#FEFEFE"/>
<path d="M3.95288 4.26805C4.01137 4.22995 4.06933 4.19023 4.1289 4.15374C5.69339 3.1996 7.25733 2.24509 8.82075 1.29023C8.99708 1.17386 9.20009 1.10419 9.41073 1.08776C9.62137 1.07133 9.83272 1.10869 10.025 1.19632C10.7226 1.48664 11.4202 1.77482 12.1248 2.04421C12.3255 2.12095 12.5542 2.12417 12.7688 2.16978C12.83 2.18266 12.9142 2.21164 12.9373 2.25833C13.5008 3.40298 14.0573 4.55086 14.6122 5.69283C14.6031 5.71483 14.6009 5.73254 14.5918 5.73791C13.9661 6.11355 13.3484 6.49833 12.7082 6.845C12.5 6.95769 12.2359 6.97862 11.9934 7.0135C10.934 7.16483 9.87417 7.31008 8.81377 7.44925C8.33079 7.51311 8.03886 7.2346 8.07106 6.75162C8.09736 6.35558 8.28572 6.07599 8.67049 5.9311C9.42179 5.64668 10.1666 5.35474 10.9142 5.0655C10.9834 5.04088 11.0502 5.00999 11.1138 4.97319C11.3397 4.82937 11.3939 4.47465 11.1707 4.34049C10.7288 4.06894 10.2662 3.83262 9.78724 3.63374C9.43949 3.49367 9.07458 3.63374 8.73435 3.76521C8.56394 3.82514 8.3994 3.90059 8.24279 3.9906C7.82421 4.24766 7.37933 4.32761 6.8883 4.31259C5.97602 4.28522 5.06802 4.30454 4.15788 4.30454H3.96522L3.95288 4.26805Z" fill="#FEFEFE"/>
<path d="M2.96602 9.35099C2.65477 8.59969 2.43904 8.40113 1.70009 8.17038C1.69687 8.13603 1.69043 8.0974 1.69043 8.05822C1.69043 7.44269 1.69043 6.82717 1.69043 6.21164C1.69043 6.11773 1.69741 6.05816 1.816 6.02865C2.36284 5.89234 2.72829 5.5505 2.91934 5.01815C2.93421 4.9859 2.95659 4.95767 2.98459 4.93583C3.0126 4.91398 3.04543 4.89915 3.08033 4.89258C5.22689 4.89258 7.37471 4.89562 9.52377 4.9017C9.55217 4.90984 9.57967 4.9208 9.60588 4.93444C9.18998 5.09543 8.80682 5.24354 8.42527 5.3938C8.08756 5.5225 7.80849 5.77011 7.6405 6.09009C7.4725 6.41007 7.42716 6.78038 7.51298 7.13144C7.64714 7.70833 8.11938 8.08076 8.70969 8.04695C9.04885 8.02763 9.38532 7.97021 9.72931 7.92943C9.77438 8.08183 9.76741 8.16984 9.57475 8.2117C9.04724 8.32708 8.68822 8.65604 8.48591 9.15619C8.46122 9.21736 8.44191 9.28123 8.41776 9.35099H2.96602ZM5.63474 5.67071C5.34673 5.66815 5.06446 5.75127 4.8238 5.9095C4.58314 6.06773 4.39494 6.29393 4.28312 6.55936C4.1713 6.82479 4.14091 7.11747 4.19581 7.40021C4.2507 7.68295 4.3884 7.94299 4.59142 8.14729C4.79444 8.35159 5.0536 8.49094 5.33599 8.54762C5.61838 8.6043 5.91124 8.57575 6.17737 8.46561C6.4435 8.35547 6.67088 8.16871 6.83063 7.92905C6.99038 7.68939 7.07528 7.40766 7.07454 7.11964C7.07455 6.73693 6.92315 6.36977 6.65339 6.0983C6.38364 5.82683 6.01744 5.67312 5.63474 5.67071ZM2.74493 7.40728C2.85825 7.41372 2.97184 7.41372 3.08516 7.40728C3.15359 7.40191 3.21721 7.37 3.26244 7.31836C3.30766 7.26672 3.3309 7.19945 3.32718 7.13091C3.33094 6.97421 3.24615 6.85185 3.08248 6.84005C2.86292 6.82422 2.6425 6.82422 2.42294 6.84005C2.27107 6.85078 2.18521 6.96455 2.18146 7.11373C2.17792 7.14882 2.18147 7.18427 2.19188 7.21796C2.2023 7.25166 2.21937 7.28292 2.24209 7.30989C2.26481 7.33687 2.29272 7.359 2.32415 7.37499C2.35559 7.39099 2.38991 7.4005 2.42509 7.40298C2.53148 7.41166 2.63834 7.4131 2.74493 7.40728Z" fill="#FEFEFE"/>
<path d="M13.2551 1.46826C13.2551 1.1715 13.3625 0.985283 13.5771 0.874735C14.1046 0.599975 14.6343 0.328971 15.1683 0.0697738C15.5053 -0.0955115 15.8321 0.0391853 16.0108 0.406784C16.5295 1.47685 17.0469 2.54798 17.5627 3.62019C17.6846 3.87295 17.8101 4.12409 17.9266 4.37953C18.0849 4.72674 17.9862 5.03316 17.6502 5.21133C17.1493 5.47786 16.6447 5.73884 16.1364 5.99429C15.7806 6.17245 15.4505 6.06459 15.2777 5.70933C14.6255 4.37631 13.9774 3.04169 13.3335 1.70545C13.3007 1.62876 13.2744 1.54941 13.2551 1.46826Z" fill="#FEFEFE"/>
<path d="M0 12.3281C0.0128794 11.9208 0.166895 11.6466 0.478683 11.4722C0.705682 11.345 0.938048 11.2259 1.17202 11.1115C1.60134 10.9012 2.05372 11.0783 2.21794 11.528C2.67122 12.7633 3.11931 14.0003 3.56222 15.2388C3.72697 15.7009 3.54505 16.1447 3.11091 16.3776C2.89625 16.4946 2.67408 16.6094 2.45191 16.7178C2.01938 16.9287 1.57289 16.7532 1.40814 16.3014C0.95844 15.0714 0.512313 13.8407 0.0697633 12.6093C0.0405307 12.5172 0.0172286 12.4232 0 12.3281Z" fill="#FEFEFE"/>
<path d="M9.07202 9.34719C9.11483 9.20303 9.19971 9.07494 9.31577 8.97933C9.43184 8.88373 9.57382 8.82495 9.7235 8.81055C9.81044 9.29191 9.68111 9.40139 9.07202 9.34719Z" fill="#FEFEFE"/>
<path d="M2.31177 4.91142C2.19532 5.20335 1.99569 5.37508 1.72146 5.43089C1.62057 4.96938 1.77674 4.8277 2.31177 4.91142Z" fill="#FEFEFE"/>
<path d="M1.70592 8.79883C1.8408 8.83381 1.96596 8.89899 2.07194 8.98945C2.17793 9.0799 2.26196 9.19327 2.31769 9.32098C1.84169 9.46212 1.65387 9.30703 1.70592 8.79883Z" fill="#FEFEFE"/>
<path d="M5.62242 8.12422C5.42342 8.12485 5.22873 8.0663 5.06308 7.95601C4.89744 7.84572 4.76832 7.68868 4.69215 7.50483C4.61598 7.32099 4.59618 7.11865 4.63529 6.92352C4.67439 6.7284 4.77062 6.54931 4.91175 6.40901C5.05288 6.26872 5.23254 6.17355 5.42789 6.1356C5.62324 6.09765 5.82546 6.11865 6.00885 6.19591C6.19224 6.27317 6.34852 6.40321 6.45782 6.5695C6.56713 6.73579 6.62453 6.93083 6.62272 7.12982C6.61922 7.39348 6.51252 7.64527 6.32551 7.83117C6.13851 8.01707 5.8861 8.12228 5.62242 8.12422Z" fill="#FEFEFE"/>
</svg>
