<svg width="16" height="18" viewBox="0 0 16 18" fill="none" xmlns="http://www.w3.org/2000/svg">
<path d="M14.1291 7.50137C13.6252 7.63225 13.2861 7.91009 12.9704 8.23192C12.4822 8.73184 11.9782 9.21994 11.4808 9.71235C11.4293 9.76598 11.3756 9.81265 11.3143 9.87326C10.8228 9.39052 10.2293 9.27037 9.57296 9.27895C8.24609 9.29611 6.91976 9.28807 5.59289 9.2827C4.90668 9.2827 4.3257 9.51228 3.84507 9.99556C3.6232 10.2187 3.39917 10.4391 3.1594 10.6768C2.81873 10.0417 2.68365 9.39427 2.78672 8.71628C2.95272 7.6183 3.44094 6.65281 4.05663 5.74685C4.59476 4.95408 5.23921 4.25088 5.91295 3.57235C5.99683 3.48322 6.05132 3.37098 6.06918 3.25052C6.13482 2.76295 6.49989 2.41322 6.99679 2.41054C8.06617 2.40482 9.13555 2.40482 10.2049 2.41054C10.7197 2.41054 11.0924 2.78065 11.1336 3.28807C11.1467 3.3841 11.1913 3.47323 11.2606 3.54178C12.0905 4.36352 12.8668 5.22871 13.4597 6.23711C13.6962 6.63886 13.898 7.06207 14.1291 7.50137Z" fill="#FEFEFE"/>
<path d="M8.54391 14.2812C8.56561 12.2697 10.2847 10.6139 12.3271 10.637C14.345 10.6589 16.0082 12.3116 15.9887 14.2753C15.9681 16.3902 14.3109 18.0235 12.2137 17.9967C10.1925 17.9709 8.52221 16.2797 8.54391 14.2812ZM11.8595 14.6668C11.6739 14.478 11.5031 14.2978 11.3257 14.1251C11.1483 13.9524 10.9644 13.9513 10.8255 14.0956C10.6866 14.2399 10.7008 14.4115 10.8629 14.5756C11.1034 14.8195 11.347 15.0605 11.5936 15.2987C11.7846 15.4837 11.949 15.4843 12.1394 15.2987C12.429 15.0181 12.7138 14.7323 13.0003 14.449C13.2346 14.2173 13.4722 13.9888 13.7011 13.7517C13.8454 13.6021 13.84 13.417 13.7038 13.2883C13.5774 13.1682 13.3941 13.1714 13.2482 13.299C13.1939 13.3478 13.1397 13.402 13.0892 13.4535L11.8595 14.6668Z" fill="#FEFEFE"/>
<path d="M8.0936 15.5847C7.57175 15.656 7.07703 15.7268 6.58121 15.7853C6.52697 15.7917 6.45265 15.7419 6.41251 15.6963C6.29805 15.5659 6.20908 15.412 6.08703 15.2902C5.03826 14.2446 3.98642 13.2024 2.93151 12.1636C2.87726 12.11 2.81759 12.0687 2.75195 12.0151C2.8062 11.9561 2.83604 11.9158 2.87238 11.8799C3.31503 11.4379 3.75841 10.9963 4.2025 10.555C4.39441 10.3567 4.62688 10.2011 4.88439 10.0986C5.14191 9.99614 5.41857 9.94912 5.69591 9.9607C7.05533 9.98538 8.41637 9.96875 9.77633 9.96821C10.1105 9.96821 10.4164 10.0487 10.685 10.26C10.3893 10.4247 10.0953 10.5695 9.81864 10.7465C9.34553 11.05 8.9433 11.4497 8.63878 11.919C8.6141 11.9651 8.57622 12.0029 8.52989 12.0277C8.48357 12.0525 8.43087 12.0632 8.3784 12.0585C8.01983 12.0499 7.66126 12.0585 7.30269 12.0585C7.03146 12.0585 6.88011 12.1787 6.88391 12.3852C6.8877 12.5917 7.03309 12.6979 7.29347 12.6989C7.59074 12.6989 7.89018 12.6989 8.21566 12.6989C7.85202 13.6208 7.80908 14.6361 8.0936 15.5847Z" fill="#FEFEFE"/>
<path d="M5.92698 16.266C5.85157 16.4028 5.80112 16.5627 5.69697 16.6726C5.32592 17.062 4.93752 17.4386 4.55291 17.8119C4.2909 18.0645 3.94155 18.0645 3.68497 17.8119C2.51903 16.6622 1.35671 15.5108 0.198005 14.3576C-0.0678029 14.0926 -0.0650906 13.752 0.200717 13.4833C0.569232 13.1099 0.941363 12.74 1.31711 12.3735C1.59431 12.1053 1.97566 12.1053 2.2393 12.3697C3.37124 13.4929 4.50319 14.6163 5.63513 15.7398C5.78877 15.8784 5.89144 16.0635 5.92698 16.266Z" fill="#FEFEFE"/>
<path d="M10.9947 1.9739C10.6692 1.79314 10.3437 1.7631 10.0068 1.76524C9.05265 1.77222 8.09846 1.75773 7.1448 1.77383C6.84048 1.77865 6.53778 1.8516 6.234 1.89398L6.23075 1.95727C6.21397 1.93181 6.19996 1.90466 6.18898 1.87628C6.07235 1.40265 5.95355 0.92902 5.84234 0.453783C5.77833 0.178618 5.91612 0.0150205 6.20417 0.0118022C6.67503 0.00590197 7.109 0.138925 7.52616 0.346506C7.98161 0.578055 8.50193 0.653521 9.00546 0.56106C9.22787 0.520831 9.43943 0.423209 9.65642 0.353479C10.0085 0.240302 10.3616 0.122834 10.7148 0.0209207C10.8205 -0.00246378 10.9298 -0.00628282 11.037 0.00965667C11.2974 0.0348668 11.4216 0.183982 11.3663 0.433401C11.254 0.943503 11.1232 1.45039 10.9947 1.9739Z" fill="#FEFEFE"/>
<path d="M15.0886 11.011C14.2207 10.3223 13.2665 9.98172 12.168 9.99513C12.1807 9.9635 12.1971 9.93344 12.2168 9.90555C12.6844 9.4405 13.1444 8.96795 13.6229 8.51417C13.8445 8.30855 14.128 8.18011 14.4303 8.14835C14.7325 8.1166 15.037 8.18327 15.2974 8.33823C15.8209 8.64344 16.1111 9.27905 15.9598 9.83099C15.9114 10.0045 15.8298 10.1673 15.7195 10.3105C15.5296 10.5524 15.3088 10.7702 15.0886 11.011Z" fill="#FEFEFE"/>
</svg>
