<svg width="23" height="23" viewBox="0 0 23 23" fill="none" xmlns="http://www.w3.org/2000/svg">
<path d="M8.78006 21.9349C8.19496 20.3274 7.60076 18.7237 7.02493 17.1128C6.78662 16.4484 7.07289 15.6601 7.66669 15.2321C8.73762 14.4605 9.91767 14.1165 11.2412 14.2889C11.641 14.3437 12.0447 14.3658 12.4481 14.3548C12.7569 14.3388 13.0621 14.2818 13.3559 14.1853C13.8528 14.0295 14.3371 13.8332 14.8281 13.657C15.2036 13.5228 15.4659 13.6532 15.5954 14.0324C15.839 14.7468 15.6432 15.3827 15.0623 15.7391C14.9553 15.7999 14.8426 15.8498 14.7257 15.8881C13.7845 16.2306 12.8412 16.569 11.9041 16.923C11.7602 16.9811 11.6355 17.0785 11.5442 17.204C11.4175 17.382 11.4509 17.5877 11.5837 17.7602C11.6437 17.8449 11.7287 17.9086 11.8269 17.9422C11.9251 17.9758 12.0313 17.9777 12.1306 17.9475C12.2719 17.91 12.4084 17.8539 12.5456 17.8039C13.384 17.4988 14.2169 17.1881 15.0571 16.8933C15.2632 16.8258 15.4527 16.7151 15.6128 16.5688C15.7729 16.4225 15.9002 16.2437 15.986 16.0445C16.416 15.1074 16.8476 14.1708 17.2947 13.242C17.5776 12.6616 18.072 12.2115 18.6762 11.9841C19.2805 11.7566 19.9489 11.769 20.5444 12.0187C20.9203 12.1782 21.0327 12.4596 20.8614 12.8278C20.122 14.4165 19.3818 16.0044 18.6408 17.5913C18.4342 18.0551 18.0805 18.438 17.6346 18.6807C17.6108 18.6968 17.5887 18.7154 17.5688 18.7361L8.78006 21.9349Z" fill="#FEFEFE"/>
<path d="M6.53354 22.751C6.20507 22.7341 6.0317 22.5544 5.92321 22.2481C5.49446 21.0344 5.04701 19.827 4.60722 18.6173C4.45271 18.1928 4.56385 17.949 4.98523 17.7941C5.31971 17.6724 5.65419 17.5506 6.0147 17.4194L7.78895 22.2941L6.53354 22.751Z" fill="#FEFEFE"/>
<path d="M9.55878 2.49648C6.72267 3.52574 5.25623 6.69802 6.29545 9.55599C7.33467 12.414 10.4805 13.901 13.3128 12.8791C16.1621 11.8506 17.6346 8.68109 16.5945 5.81393C15.5585 2.95781 12.3962 1.46673 9.55878 2.49648ZM12.3346 10.1229C11.8521 10.2986 11.3284 10.3273 10.8297 10.2053C10.3309 10.0834 9.87957 9.81624 9.53265 9.43775C9.18572 9.05925 8.95883 8.58637 8.88067 8.07892C8.80251 7.57147 8.87658 7.05224 9.09353 6.58688C9.31047 6.12153 9.66054 5.73097 10.0995 5.46458C10.5384 5.19819 11.0465 5.06795 11.5594 5.09032C12.0724 5.1127 12.5672 5.28668 12.9812 5.59027C13.3953 5.89386 13.71 6.31342 13.8856 6.79589C14.0023 7.11634 14.0546 7.45663 14.0397 7.79732C14.0248 8.13801 13.9429 8.47242 13.7987 8.78144C13.6545 9.09046 13.4508 9.36805 13.1993 9.59833C12.9478 9.82862 12.6533 10.0071 12.3328 10.1235L12.3346 10.1229Z" fill="#FEFEFE"/>
</svg>
