<svg width="17" height="18" viewBox="0 0 17 18" fill="none" xmlns="http://www.w3.org/2000/svg">
<path d="M9.86377 3.89695C9.84495 3.88801 9.82712 3.87711 9.81059 3.86442C9.79808 3.85504 9.78557 3.84628 9.77306 3.83627C9.58537 3.71114 9.39768 3.5954 9.19748 3.48279L9.20186 3.4709C7.86864 2.75768 6.22386 2.76519 4.78803 3.49217C4.76489 3.5172 4.75613 3.53096 4.74424 3.53722C3.45482 4.1885 2.47696 5.17386 1.68554 6.36757C1.63736 6.44514 1.33331 6.94565 1.02049 7.50872C0.990461 7.58817 0.972943 7.64635 0.947292 7.70078C0.476519 8.68815 0.177563 9.74857 0.0632771 10.8364C0.0166522 11.2244 -0.00424783 11.615 0.000714135 12.0057C0.00884733 12.1109 0.0132267 12.1803 0.0201087 12.2497C0.0958099 13.0368 0.30477 13.7825 0.734578 14.4532C1.46093 15.5937 2.55266 16.2225 3.81268 16.5916C5.23974 17.0095 6.70121 17.0727 8.17332 16.9545C8.63691 16.9169 9.09612 16.8294 9.57911 16.7624C8.77392 15.1645 8.7514 13.6092 9.68797 12.1159C10.6245 10.6225 12.046 9.9762 13.8328 9.99935C13.1971 7.45178 11.9965 5.34716 9.86377 3.89695Z" fill="white"/>
<path d="M4.57157 2.90084C6.14753 2.12819 7.94184 2.12131 9.42146 2.87895C9.57911 2.45352 9.73698 2.02767 9.89506 1.60141C10.0665 1.13719 10.0202 0.9958 9.60852 0.721148C8.73264 0.135558 7.76291 -0.0296081 6.73062 0.00417591C5.91539 0.0205344 5.12055 0.261952 4.43393 0.701753C3.9522 1.01457 3.91216 1.13594 4.10986 1.66522C4.2646 2.07814 4.4185 2.49001 4.57157 2.90084Z" fill="white"/>
<path d="M16.9809 14.5149C16.9805 14.9785 16.8877 15.4373 16.708 15.8647C16.5283 16.292 16.2652 16.6793 15.9341 17.0038C15.6031 17.3283 15.2107 17.5837 14.7798 17.7549C14.349 17.9261 13.8884 18.0097 13.4249 18.0009C11.5204 17.984 9.97951 16.3936 9.99202 14.4586C10.0039 12.5385 11.5986 10.9894 13.5406 11.012C14.4604 11.023 15.3386 11.3976 15.9832 12.0539C16.6277 12.7102 16.9865 13.595 16.9809 14.5149Z" fill="white"/>
<path d="M12 13L15 16M12 16L15 13" stroke="#2C2C2C" stroke-width="0.4" stroke-linecap="round"/>
</svg>
