<svg width="27" height="25" viewBox="0 0 27 25" fill="none" xmlns="http://www.w3.org/2000/svg">
<path d="M4.54869 16.3029C5.26183 15.5541 6.08193 14.9913 7.18419 15.1472C7.59347 15.2045 8.03686 15.3363 8.36707 15.5719C9.49026 16.3742 10.77 16.7897 12.0537 17.2199C12.356 17.3214 12.6622 17.4098 12.9606 17.5207C13.5652 17.7447 13.8667 18.4369 13.6753 19.1361C13.4962 19.7934 12.9924 20.0996 12.3071 19.9717L10.4553 19.6275C10.1809 19.5771 10.0003 19.6732 9.96232 19.8903C9.92434 20.1073 10.0491 20.2507 10.3359 20.3042C10.9623 20.4228 11.5963 20.5096 12.2141 20.6616C13.3768 20.9491 14.4884 19.9197 14.431 18.6353C14.4241 18.4733 14.4148 18.2919 14.3404 18.1555C14.1543 17.8168 14.2915 17.6013 14.5295 17.361C14.9171 16.9734 15.2729 16.5471 15.6442 16.1401C16.1651 15.5712 16.9084 15.6068 17.3495 16.2362C17.7758 16.8401 17.7805 17.4703 17.4363 18.1206C16.2046 20.4461 14.4659 22.2994 12.2622 23.7249C12.0872 23.8458 11.9061 23.9575 11.7196 24.0598C11.194 24.3296 10.6452 24.3753 10.0918 24.1482C9.08408 23.7311 8.08104 23.3025 7.07955 22.8707C6.98648 22.8317 6.91111 22.7596 6.86793 22.6684C6.64004 22.0126 6.43773 21.3507 6.20906 20.6941C5.82148 19.582 5.42538 18.4731 5.02076 17.3672C4.89828 17.0153 4.72077 16.6812 4.54869 16.3029Z" fill="#ffffff"/>
<path d="M6.68713 6.60897C6.77162 6.55393 6.85534 6.49657 6.94138 6.44386C9.2012 5.06565 11.4602 3.68692 13.7185 2.30767C13.9732 2.13958 14.2664 2.03895 14.5707 2.01522C14.8749 1.99149 15.1802 2.04545 15.4579 2.17202C16.4656 2.59138 17.4733 3.00763 18.4911 3.39676C18.781 3.5076 19.1112 3.51225 19.4213 3.57814C19.5096 3.59674 19.6313 3.6386 19.6647 3.70604C20.4786 5.35943 21.2824 7.01747 22.0839 8.66699C22.0707 8.69877 22.0676 8.72435 22.0544 8.7321C21.1506 9.2747 20.2584 9.83048 19.3337 10.3312C19.0329 10.494 18.6515 10.5242 18.3012 10.5746C16.771 10.7932 15.2401 11.003 13.7084 11.204C13.0108 11.2963 12.5891 10.894 12.6356 10.1964C12.6736 9.62429 12.9457 9.22044 13.5015 9.01115C14.5867 8.60032 15.6626 8.17864 16.7423 7.76084C16.8423 7.72528 16.9389 7.68066 17.0307 7.62751C17.357 7.41977 17.4353 6.9074 17.1129 6.71361C16.4746 6.32137 15.8064 5.98002 15.1145 5.69274C14.6122 5.49043 14.0851 5.69274 13.5937 5.88265C13.3476 5.96922 13.1099 6.0782 12.8837 6.20822C12.279 6.57951 11.6365 6.69501 10.9272 6.67331C9.60944 6.63377 8.29789 6.66168 6.98324 6.66168H6.70496L6.68713 6.60897Z" fill="#ffffff"/>
<path d="M5.26167 13.9497C4.81208 12.8645 4.50047 12.5777 3.4331 12.2444C3.42845 12.1948 3.41914 12.1389 3.41914 12.0824C3.41914 11.1933 3.41914 10.3042 3.41914 9.41508C3.41914 9.27943 3.42922 9.19339 3.60053 9.15075C4.3904 8.95387 4.91828 8.4601 5.19423 7.69115C5.21572 7.64456 5.24804 7.60379 5.28849 7.57224C5.32895 7.54069 5.37636 7.51927 5.42678 7.50977C8.52737 7.50977 11.6298 7.51416 14.734 7.52294C14.775 7.53469 14.8147 7.55053 14.8526 7.57023C14.2518 7.80277 13.6984 8.01671 13.1472 8.23375C12.6595 8.41965 12.2563 8.77731 12.0137 9.2395C11.771 9.70169 11.7055 10.2366 11.8295 10.7437C12.0233 11.577 12.7054 12.1149 13.5581 12.0661C14.048 12.0382 14.534 11.9552 15.0309 11.8963C15.096 12.1165 15.0859 12.2436 14.8076 12.3041C14.0456 12.4707 13.5271 12.9459 13.2348 13.6683C13.1992 13.7567 13.1713 13.8489 13.1364 13.9497H5.26167ZM9.11648 8.63373C8.70047 8.63004 8.29275 8.7501 7.94512 8.97866C7.5975 9.20721 7.32566 9.53394 7.16414 9.91734C7.00263 10.3007 6.95873 10.7235 7.03802 11.1319C7.11731 11.5403 7.31622 11.9159 7.60946 12.211C7.90271 12.5061 8.27706 12.7074 8.68496 12.7893C9.09285 12.8711 9.51587 12.8299 9.90028 12.6708C10.2847 12.5117 10.6131 12.242 10.8439 11.8958C11.0746 11.5496 11.1973 11.1427 11.1962 10.7266C11.1962 10.1738 10.9775 9.64348 10.5879 9.25137C10.1982 8.85925 9.66926 8.63721 9.11648 8.63373ZM4.94231 11.1421C5.10599 11.1514 5.27007 11.1514 5.43375 11.1421C5.5326 11.1344 5.6245 11.0883 5.68982 11.0137C5.75514 10.9391 5.78871 10.8419 5.78334 10.7429C5.78877 10.5166 5.6663 10.3398 5.42988 10.3228C5.11274 10.2999 4.79436 10.2999 4.47722 10.3228C4.25785 10.3383 4.13383 10.5026 4.1284 10.7181C4.1233 10.7688 4.12842 10.82 4.14346 10.8687C4.15851 10.9173 4.18317 10.9625 4.21599 11.0014C4.24881 11.0404 4.28911 11.0724 4.33452 11.0955C4.37992 11.1186 4.4295 11.1323 4.48032 11.1359C4.634 11.1484 4.78835 11.1505 4.94231 11.1421Z" fill="#ffffff"/>
<path d="M20.1237 2.56418C20.1237 2.13552 20.2787 1.86655 20.5888 1.70687C21.3508 1.30999 22.1158 0.91854 22.8871 0.544144C23.3739 0.305398 23.846 0.49996 24.1041 1.03094C24.8534 2.57658 25.6007 4.12378 26.3458 5.67252C26.5218 6.03761 26.7032 6.40038 26.8714 6.76935C27.1 7.27087 26.9574 7.71348 26.4722 7.97083C25.7487 8.35582 25.0198 8.7328 24.2855 9.10177C23.7716 9.35912 23.2948 9.20332 23.0452 8.69017C22.1032 6.7647 21.1671 4.83691 20.2369 2.90679C20.1895 2.79602 20.1516 2.6814 20.1237 2.56418Z" fill="#ffffff"/>
<path d="M0.977417 18.2498C0.996021 17.6614 1.21849 17.2653 1.66885 17.0134C1.99674 16.8297 2.33237 16.6576 2.67034 16.4925C3.29046 16.1886 3.94391 16.4444 4.1811 17.094C4.83584 18.8784 5.48309 20.6651 6.12285 22.4542C6.36082 23.1216 6.09804 23.7626 5.47095 24.099C5.16089 24.268 4.83998 24.4339 4.51907 24.5905C3.8943 24.8951 3.24937 24.6416 3.0114 23.989C2.36183 22.2123 1.71742 20.4346 1.07819 18.6559C1.03596 18.5228 1.0023 18.3872 0.977417 18.2498Z" fill="#ffffff"/>
<path d="M14.0814 13.9451C14.1433 13.7368 14.2659 13.5518 14.4335 13.4137C14.6012 13.2756 14.8063 13.1907 15.0225 13.1699C15.148 13.8652 14.9612 14.0234 14.0814 13.9451Z" fill="#ffffff"/>
<path d="M4.31663 7.53677C4.14842 7.95845 3.86007 8.20649 3.46397 8.28711C3.31824 7.62048 3.54381 7.41584 4.31663 7.53677Z" fill="#ffffff"/>
<path d="M3.44153 13.1523C3.63635 13.2029 3.81714 13.297 3.97023 13.4277C4.12332 13.5583 4.2447 13.7221 4.3252 13.9066C3.63764 14.1104 3.36634 13.8864 3.44153 13.1523Z" fill="#ffffff"/>
<path d="M9.09869 12.1783C8.81125 12.1793 8.53003 12.0947 8.29076 11.9354C8.0515 11.7761 7.865 11.5492 7.75497 11.2837C7.64495 11.0181 7.61635 10.7258 7.67284 10.444C7.72932 10.1622 7.86832 9.90348 8.07217 9.70082C8.27603 9.49817 8.53553 9.36071 8.8177 9.30589C9.09987 9.25108 9.39197 9.2814 9.65687 9.393C9.92177 9.5046 10.1475 9.69244 10.3054 9.93264C10.4633 10.1728 10.5462 10.4546 10.5436 10.742C10.5385 11.1228 10.3844 11.4865 10.1143 11.7551C9.84416 12.0236 9.47956 12.1755 9.09869 12.1783Z" fill="#ffffff"/>
</svg>
