<svg width="22" height="24" viewBox="0 0 22 24" fill="none" xmlns="http://www.w3.org/2000/svg">
<path d="M16 1V5.88889M6 1V5.88889M1 10.7778H21M1 5.88889C1 5.24058 1.26339 4.61883 1.73223 4.16041C2.20107 3.70198 2.83696 3.44444 3.5 3.44444H18.5C19.163 3.44444 19.7989 3.70198 20.2678 4.16041C20.7366 4.61883 21 5.24058 21 5.88889V20.5556C21 21.2039 20.7366 21.8256 20.2678 22.284C19.7989 22.7425 19.163 23 18.5 23H3.5C2.83696 23 2.20107 22.7425 1.73223 22.284C1.26339 21.8256 1 21.2039 1 20.5556V5.88889ZM6 15.6667H8.5V18.1111H6V15.6667Z" stroke="#5A6A85" stroke-width="1.4" stroke-linecap="round" stroke-linejoin="round"/>
</svg>
