<svg width="34" height="37" viewBox="0 0 34 37" fill="none" xmlns="http://www.w3.org/2000/svg">
<path d="M13.7708 34.7936C12.9257 32.4716 12.0674 30.1551 11.2357 27.8283C10.8914 26.8686 11.3049 25.73 12.1626 25.1117C13.7095 23.9972 15.4141 23.5003 17.3259 23.7493C17.9034 23.8285 18.4864 23.8604 19.0691 23.8446C19.5151 23.8214 19.956 23.7391 20.3803 23.5998C21.0982 23.3746 21.7977 23.0911 22.507 22.8366C23.0493 22.6428 23.4282 22.8311 23.6153 23.3788C23.967 24.4107 23.6842 25.3293 22.8451 25.844C22.6907 25.9318 22.5278 26.0039 22.359 26.0592C20.9994 26.5541 19.6369 27.0428 18.2834 27.5542C18.0755 27.6381 17.8954 27.7787 17.7634 27.96C17.5805 28.2171 17.6288 28.5142 17.8206 28.7635C17.9072 28.8858 18.0301 28.9778 18.1719 29.0263C18.3136 29.0749 18.4671 29.0775 18.6105 29.0339C18.8146 28.9799 19.0117 28.8987 19.21 28.8266C20.421 28.3858 21.6241 27.9371 22.8377 27.5113C23.1354 27.4137 23.4091 27.2539 23.6404 27.0425C23.8717 26.8311 24.0554 26.573 24.1794 26.2852C24.8005 24.9317 25.424 23.5787 26.0697 22.2371C26.4784 21.3988 27.1925 20.7487 28.0653 20.4201C28.9382 20.0916 29.9037 20.1095 30.7638 20.4702C31.3067 20.7006 31.4691 21.1071 31.2216 21.6389C30.1537 23.9337 29.0845 26.2272 28.0142 28.5195C27.7157 29.1894 27.2049 29.7424 26.5607 30.093C26.5263 30.1163 26.4945 30.1431 26.4657 30.1731L13.7708 34.7936Z" fill="#ffffff"/>
<path d="M10.5259 35.9737C10.0514 35.9493 9.801 35.6897 9.64428 35.2472C9.02497 33.4941 8.37866 31.7501 7.74341 30.0028C7.52023 29.3896 7.68077 29.0374 8.28942 28.8137C8.77256 28.6379 9.2557 28.462 9.77644 28.2725L12.3392 35.3137L10.5259 35.9737Z" fill="#ffffff"/>
<path d="M25.1953 11.56C24.9707 9.94371 24.2209 8.44612 23.0614 7.2979C21.9019 6.14968 20.3971 5.41454 18.7787 5.20571C17.1603 4.99688 15.5181 5.32596 14.1051 6.14225C12.6922 6.95854 11.5868 8.21676 10.9593 9.72308M10.5 6.04926V9.72308H14.1738M10.5 13.3969C10.7633 15.2965 11.7506 17.0208 13.2554 18.2096M16.9292 15.2338H18.7661C19.0097 15.2338 19.2433 15.3306 19.4156 15.5028C19.5878 15.6751 19.6846 15.9087 19.6846 16.1523V17.0707C19.6846 17.3143 19.5878 17.5479 19.4156 17.7202C19.2433 17.8924 19.0097 17.9892 18.7661 17.9892H17.8477C17.6041 17.9892 17.3705 18.0859 17.1982 18.2582C17.026 18.4304 16.9292 18.664 16.9292 18.9076V19.8261C16.9292 20.0697 17.026 20.3033 17.1982 20.4755C17.3705 20.6478 17.6041 20.7445 17.8477 20.7445H19.6846M22.4399 15.2338V17.0707C22.4399 17.3143 22.5367 17.5479 22.7089 17.7202C22.8812 17.8924 23.1148 17.9892 23.3584 17.9892H24.2768M25.1953 15.2338V20.7445" stroke="#ffffff" stroke-linecap="round" stroke-linejoin="round"/>
</svg>
