<svg width="24" height="26" viewBox="0 0 24 26" fill="#ffffff" xmlns="http://www.w3.org/2000/svg">
<path d="M20.8306 10.8362C20.1027 11.0252 19.6129 11.4266 19.1569 11.8914C18.4517 12.6135 17.7238 13.3186 17.0052 14.0298C16.9308 14.1073 16.8532 14.1747 16.7647 14.2622C16.0548 13.5649 15.1976 13.3914 14.2495 13.4038C12.3329 13.4286 10.4171 13.417 8.50049 13.4092C7.50928 13.4092 6.67009 13.7408 5.97585 14.4389C5.65538 14.7612 5.33177 15.0796 4.98543 15.4229C4.49336 14.5055 4.29825 13.5704 4.44713 12.5911C4.6869 11.0051 5.3921 9.61048 6.28144 8.30188C7.05873 7.15676 7.9896 6.14102 8.96279 5.16093C9.08395 5.03219 9.16265 4.87006 9.18845 4.69606C9.28326 3.99179 9.8106 3.48663 10.5283 3.48276C12.073 3.4745 13.6177 3.4745 15.1623 3.48276C15.9059 3.48276 16.4442 4.01736 16.5038 4.7503C16.5227 4.88901 16.5871 5.01775 16.6871 5.11677C17.886 6.30373 19.0072 7.55344 19.8637 9.01003C20.2053 9.59034 20.4968 10.2016 20.8306 10.8362Z" fill="#ffffff"/>
<path d="M12.7631 20.6275C12.7944 17.722 15.2775 15.3303 18.2276 15.3636C21.1425 15.3954 23.5449 17.7825 23.5167 20.6189C23.4869 23.6739 21.0931 26.0331 18.0639 25.9944C15.1443 25.9572 12.7317 23.5143 12.7631 20.6275ZM17.5522 21.1845C17.2842 20.9118 17.0374 20.6515 16.7812 20.402C16.525 20.1525 16.2593 20.151 16.0587 20.3594C15.8582 20.5678 15.8785 20.8157 16.1128 21.0528C16.4602 21.4051 16.812 21.7532 17.1683 22.0972C17.4441 22.3645 17.6815 22.3653 17.9565 22.0972C18.3749 21.692 18.7863 21.2791 19.2 20.87C19.5385 20.5353 19.8817 20.2052 20.2124 19.8628C20.4208 19.6466 20.413 19.3793 20.2163 19.1934C20.0337 19.0198 19.7689 19.0245 19.5581 19.2088C19.4798 19.2794 19.4014 19.3576 19.3285 19.432L17.5522 21.1845Z" fill="#ffffff"/>
<path d="M12.1127 22.5128C11.3589 22.6158 10.6443 22.7181 9.92809 22.8025C9.84974 22.8118 9.74239 22.7398 9.68441 22.6739C9.51908 22.4856 9.39057 22.2633 9.21427 22.0874C7.69939 20.5771 6.18006 19.0717 4.6563 17.5712C4.57794 17.4937 4.49175 17.4341 4.39694 17.3566C4.4753 17.2714 4.51839 17.2133 4.57089 17.1614C5.21028 16.5229 5.85071 15.885 6.49218 15.2477C6.76938 14.9612 7.10516 14.7365 7.47713 14.5884C7.8491 14.4404 8.24871 14.3725 8.64932 14.3892C10.6129 14.4248 12.5789 14.4008 14.5433 14.4C15.0259 14.4 15.4679 14.5163 15.8557 14.8215C15.4287 15.0594 15.004 15.2686 14.6044 15.5243C13.921 15.9626 13.34 16.54 12.9001 17.2179C12.8645 17.2844 12.8098 17.339 12.7429 17.3748C12.6759 17.4106 12.5998 17.4261 12.524 17.4194C12.0061 17.407 11.4882 17.4194 10.9702 17.4194C10.5784 17.4194 10.3598 17.5929 10.3653 17.8912C10.3708 18.1895 10.5808 18.3429 10.9569 18.3444C11.3863 18.3444 11.8188 18.3444 12.289 18.3444C11.7637 19.676 11.7017 21.1425 12.1127 22.5128Z" fill="#ffffff"/>
<path d="M8.98306 23.4939C8.87415 23.6914 8.80128 23.9223 8.65083 24.0811C8.11488 24.6436 7.55385 25.1875 6.9983 25.7268C6.61984 26.0917 6.11523 26.0917 5.74461 25.7268C4.06048 24.0662 2.38157 22.403 0.707882 20.7372C0.323937 20.3545 0.327855 19.8625 0.7118 19.4743C1.2441 18.9351 1.78162 18.4007 2.32437 17.8713C2.72477 17.4839 3.27561 17.4839 3.65642 17.8659C5.29145 19.4883 6.92648 21.1109 8.56151 22.7338C8.78343 22.9339 8.93173 23.2013 8.98306 23.4939Z" fill="#ffffff"/>
<path d="M16.3031 2.85119C15.8329 2.59009 15.3628 2.5467 14.8762 2.5498C13.4979 2.55987 12.1196 2.53895 10.7421 2.56219C10.3026 2.56917 9.86533 2.67454 9.42653 2.73574L9.42183 2.82717C9.39759 2.79039 9.37736 2.75118 9.3615 2.71018C9.19303 2.02605 9.02143 1.34192 8.8608 0.655465C8.76834 0.258004 8.96737 0.0216963 9.38344 0.0170476C10.0636 0.00852507 10.6904 0.20067 11.293 0.500509C11.9509 0.834969 12.7024 0.943975 13.4297 0.81042C13.751 0.752312 14.0566 0.611302 14.37 0.510581C14.8785 0.347103 15.3886 0.177427 15.8987 0.0302189C16.0515 -0.0035588 16.2093 -0.00907519 16.3642 0.0139485C16.7403 0.0503631 16.9197 0.265751 16.8398 0.626023C16.6776 1.36284 16.4888 2.095 16.3031 2.85119Z" fill="#ffffff"/>
<path d="M22.2165 15.904C20.9628 14.9091 19.5845 14.4172 17.9978 14.4365C18.0162 14.3909 18.0398 14.3474 18.0683 14.3071C18.7438 13.6354 19.4082 12.9528 20.0993 12.2974C20.4195 12.0004 20.829 11.8148 21.2656 11.769C21.7022 11.7231 22.142 11.8194 22.5182 12.0432C23.2743 12.4841 23.6935 13.4022 23.4749 14.1995C23.405 14.4501 23.2872 14.6853 23.1278 14.8921C22.8535 15.2415 22.5346 15.5561 22.2165 15.904Z" fill="#ffffff"/>
</svg>
