<svg width="24" height="27" viewBox="0 0 24 27" fill="none" xmlns="http://www.w3.org/2000/svg">
<path d="M20.8306 10.8362C20.1027 11.0252 19.6129 11.4266 19.1569 11.8914C18.4517 12.6135 17.7238 13.3186 17.0053 14.0298C16.9308 14.1073 16.8532 14.1747 16.7647 14.2622C16.0548 13.5649 15.1976 13.3914 14.2495 13.4038C12.3329 13.4286 10.4171 13.417 8.50049 13.4092C7.50929 13.4092 6.6701 13.7408 5.97586 14.4389C5.65539 14.7612 5.33178 15.0796 4.98544 15.4229C4.49337 14.5055 4.29826 13.5704 4.44714 12.5911C4.68691 11.0051 5.39211 9.61048 6.28145 8.30188C7.05874 7.15676 7.98961 6.14102 8.96279 5.16093C9.08396 5.03219 9.16266 4.87006 9.18846 4.69606C9.28327 3.99179 9.81061 3.48663 10.5283 3.48276C12.073 3.4745 13.6177 3.4745 15.1623 3.48276C15.9059 3.48276 16.4442 4.01736 16.5038 4.7503C16.5227 4.88901 16.5871 5.01775 16.6871 5.11677C17.886 6.30373 19.0073 7.55344 19.8637 9.01003C20.2053 9.59034 20.4968 10.2016 20.8306 10.8362Z" fill="#ffffff"/>
<path d="M12.1127 22.5128C11.3589 22.6158 10.6443 22.7181 9.92809 22.8025C9.84973 22.8118 9.74238 22.7398 9.6844 22.6739C9.51907 22.4856 9.39056 22.2633 9.21426 22.0874C7.69938 20.5771 6.18006 19.0717 4.65629 17.5712C4.57794 17.4937 4.49175 17.4341 4.39693 17.3566C4.47529 17.2714 4.51839 17.2133 4.57088 17.1614C5.21027 16.5229 5.8507 15.885 6.49217 15.2477C6.76938 14.9612 7.10515 14.7365 7.47712 14.5884C7.84909 14.4404 8.24871 14.3725 8.64932 14.3892C10.6129 14.4248 12.5789 14.4008 14.5433 14.4C15.0259 14.4 15.4679 14.5163 15.8557 14.8215C15.4287 15.0594 15.004 15.2686 14.6044 15.5243C13.921 15.9626 13.34 16.54 12.9001 17.2179C12.8645 17.2844 12.8098 17.339 12.7428 17.3748C12.6759 17.4106 12.5998 17.4261 12.524 17.4194C12.0061 17.407 11.4882 17.4194 10.9702 17.4194C10.5784 17.4194 10.3598 17.5929 10.3653 17.8912C10.3708 18.1895 10.5808 18.3429 10.9569 18.3444C11.3863 18.3444 11.8188 18.3444 12.289 18.3444C11.7637 19.676 11.7017 21.1425 12.1127 22.5128Z" fill="#ffffff"/>
<path d="M8.98306 23.4939C8.87415 23.6914 8.80128 23.9223 8.65083 24.0811C8.11488 24.6436 7.55385 25.1875 6.9983 25.7268C6.61984 26.0917 6.11523 26.0917 5.74461 25.7268C4.06048 24.0662 2.38157 22.403 0.707882 20.7372C0.323937 20.3545 0.327855 19.8625 0.7118 19.4743C1.2441 18.9351 1.78162 18.4007 2.32437 17.8713C2.72477 17.4839 3.27561 17.4839 3.65642 17.8659C5.29145 19.4883 6.92648 21.1109 8.56151 22.7338C8.78343 22.9339 8.93173 23.2013 8.98306 23.4939Z" fill="#ffffff"/>
<path d="M16.3031 2.85119C15.8329 2.59009 15.3628 2.5467 14.8762 2.5498C13.4979 2.55987 12.1196 2.53895 10.7421 2.56219C10.3026 2.56917 9.86534 2.67454 9.42654 2.73574L9.42184 2.82717C9.3976 2.79039 9.37737 2.75118 9.36151 2.71018C9.19304 2.02605 9.02144 1.34192 8.86081 0.655465C8.76835 0.258004 8.96738 0.0216963 9.38345 0.0170476C10.0636 0.00852507 10.6904 0.20067 11.293 0.500509C11.9509 0.834969 12.7024 0.943975 13.4298 0.81042C13.751 0.752312 14.0566 0.611302 14.37 0.510581C14.8786 0.347103 15.3887 0.177427 15.8988 0.0302189C16.0516 -0.0035588 16.2094 -0.00907519 16.3642 0.0139485C16.7403 0.0503631 16.9197 0.265751 16.8398 0.626023C16.6776 1.36284 16.4888 2.095 16.3031 2.85119Z" fill="#ffffff"/>
<path d="M22.2165 15.904C20.9628 14.9091 19.5845 14.4172 17.9978 14.4365C18.0162 14.3909 18.0399 14.3474 18.0683 14.3071C18.7438 13.6354 19.4082 12.9528 20.0993 12.2974C20.4195 12.0004 20.8291 11.8148 21.2656 11.769C21.7022 11.7231 22.142 11.8194 22.5182 12.0432C23.2743 12.4841 23.6935 13.4022 23.4749 14.1995C23.405 14.4501 23.2872 14.6853 23.1278 14.8921C22.8535 15.2415 22.5346 15.5561 22.2165 15.904Z" fill="#ffffff"/>
<path d="M12 20.2231C12 20.9818 12.1494 21.7332 12.4398 22.4342C12.7302 23.1351 13.1558 23.7721 13.6923 24.3086C14.2288 24.8451 14.8657 25.2707 15.5667 25.5611C16.2677 25.8514 17.019 26.0009 17.7778 26.0009C18.5365 26.0009 19.2878 25.8514 19.9888 25.5611C20.6898 25.2707 21.3268 24.8451 21.8633 24.3086C22.3998 23.7721 22.8254 23.1351 23.1157 22.4342C23.4061 21.7332 23.5556 20.9818 23.5556 20.2231C23.5556 18.6907 22.9468 17.2211 21.8633 16.1376C20.7797 15.054 19.3101 14.4453 17.7778 14.4453C16.2454 14.4453 14.7758 15.054 13.6923 16.1376C12.6087 17.2211 12 18.6907 12 20.2231Z" fill="#ffffff"/>
<path d="M17.7778 17.6552L15.2099 20.2231L17.7778 17.6552Z" fill="#ffffff"/>
<path d="M17.7778 17.6552V22.791V17.6552Z" fill="#ffffff"/>
<path d="M20.3457 20.2231L17.7778 17.6552L20.3457 20.2231Z" fill="#ffffff"/>
<path d="M17.7778 17.6552L15.2099 20.2231M17.7778 17.6552V22.791M17.7778 17.6552L20.3457 20.2231M12 20.2231C12 20.9818 12.1494 21.7332 12.4398 22.4342C12.7302 23.1351 13.1558 23.7721 13.6923 24.3086C14.2288 24.8451 14.8657 25.2707 15.5667 25.5611C16.2677 25.8514 17.019 26.0009 17.7778 26.0009C18.5365 26.0009 19.2878 25.8514 19.9888 25.5611C20.6898 25.2707 21.3268 24.8451 21.8633 24.3086C22.3998 23.7721 22.8254 23.1351 23.1157 22.4342C23.4061 21.7332 23.5556 20.9818 23.5556 20.2231C23.5556 18.6907 22.9468 17.2211 21.8633 16.1376C20.7797 15.054 19.3101 14.4453 17.7778 14.4453C16.2454 14.4453 14.7758 15.054 13.6923 16.1376C12.6087 17.2211 12 18.6907 12 20.2231Z" stroke="#000000" stroke-width="0.6" stroke-linecap="round" stroke-linejoin="round"/>
</svg>
