<svg width="81" height="80" viewBox="0 0 81 80" fill="none" xmlns="http://www.w3.org/2000/svg">
<g clip-path="url(#clip0_3117_13840)">
<path d="M67.7349 67.2349C64.4848 70.4854 60.6263 73.0638 56.3797 74.8229C52.1331 76.5821 47.5815 77.4875 42.9849 77.4875C38.3884 77.4875 33.8368 76.5821 29.5902 74.8229C25.3436 73.0638 21.485 70.4854 18.2349 67.2349C14.9845 63.9848 12.4061 60.1263 10.647 55.8797C8.88784 51.6331 7.98242 47.0815 7.98242 42.4849C7.98242 37.8884 8.88784 33.3368 10.647 29.0902C12.4061 24.8436 14.9845 20.985 18.2349 17.7349C21.485 14.4845 25.3436 11.9061 29.5902 10.147C33.8368 8.38784 38.3884 7.48242 42.9849 7.48242C47.5815 7.48242 52.1331 8.38784 56.3797 10.147C60.6263 11.9061 64.4848 14.4845 67.7349 17.7349C70.9854 20.985 73.5638 24.8436 75.3229 29.0902C77.0821 33.3368 77.9875 37.8884 77.9875 42.4849C77.9875 47.0815 77.0821 51.6331 75.3229 55.8797C73.5638 60.1263 70.9854 63.9848 67.7349 67.2349Z" fill="#5D87FF" fill-opacity="0.12"/>
<path d="M69.5049 15.9707C54.8799 1.3457 31.0949 1.3457 16.4699 15.9707C1.84988 30.5957 1.84988 54.3804 16.4699 69.0054C31.0949 83.6254 54.8799 83.6254 69.5049 69.0054C84.1299 54.3804 84.1299 30.5957 69.5049 15.9707ZM65.9699 19.5052C68.993 22.5205 71.3916 26.1029 73.0281 30.0466C74.6647 33.9904 75.5071 38.2182 75.5071 42.488C75.5071 46.7578 74.6647 50.9857 73.0281 54.9294C71.3916 58.8732 68.993 62.4555 65.9699 65.4708C62.9547 68.4932 59.3729 70.891 55.4296 72.5271C51.4864 74.1632 47.2591 75.0051 42.9899 75.0051C38.7207 75.0051 34.4934 74.1632 30.5501 72.5271C26.6069 70.891 23.0251 68.4932 20.0099 65.4708C16.9868 62.4555 14.5882 58.8732 12.9517 54.9294C11.3151 50.9857 10.4727 46.7578 10.4727 42.488C10.4727 38.2182 11.3151 33.9904 12.9517 30.0466C14.5882 26.1029 16.9868 22.5205 20.0099 19.5052C23.0251 16.4829 26.6069 14.0851 30.5501 12.449C34.4934 10.8129 38.7207 9.97095 42.9899 9.97095C47.2591 9.97095 51.4864 10.8129 55.4296 12.449C59.3729 14.0851 62.9547 16.4829 65.9699 19.5052Z" fill="#5D87FF"/>
<path fill-rule="evenodd" clip-rule="evenodd" d="M55.3001 27.5847C54.6514 27.6058 54.0364 27.8783 53.5851 28.3446L28.8401 53.0943C28.5923 53.3228 28.3932 53.5994 28.2548 53.9067C28.1165 54.214 28.0417 54.5457 28.0349 54.8827C28.0282 55.2196 28.0896 55.5546 28.2156 55.8672C28.3416 56.1798 28.5294 56.464 28.7679 56.7021C29.0064 56.9403 29.2906 57.1271 29.6033 57.2527C29.9161 57.3782 30.251 57.4393 30.588 57.4321C30.9249 57.4249 31.2569 57.35 31.564 57.2112C31.8711 57.0724 32.147 56.8728 32.3751 56.6246L57.1301 31.8797C57.495 31.5287 57.7448 31.0746 57.8462 30.5785C57.9477 30.0823 57.8961 29.5676 57.6982 29.1014C57.5004 28.6353 57.1656 28.2397 56.7383 27.968C56.3109 27.6963 55.8111 27.5612 55.3051 27.5798L55.3001 27.5847Z" fill="#5D87FF"/>
<path fill-rule="evenodd" clip-rule="evenodd" d="M30.5901 27.586C30.0904 27.583 29.6013 27.7295 29.1859 28.0071C28.7704 28.2848 28.4477 28.6808 28.2594 29.1436C28.071 29.6064 28.0257 30.1147 28.1292 30.6036C28.2327 31.0924 28.4803 31.5392 28.8401 31.8859L53.5901 56.6259C54.0609 57.082 54.6921 57.335 55.3476 57.3302C56.0031 57.3255 56.6306 57.0631 57.0948 56.6003C57.5589 56.1374 57.8228 55.5108 57.8294 54.8553C57.836 54.1998 57.5848 53.5678 57.1301 53.0956L32.3751 28.3459C32.1432 28.1066 31.8658 27.9161 31.5593 27.7856C31.2528 27.6551 30.9232 27.5873 30.5901 27.586Z" fill="#5D87FF"/>
</g>
<defs>
<clipPath id="clip0_3117_13840">
<rect width="80" height="80" fill="white" transform="translate(0.5)"/>
</clipPath>
</defs>
</svg>
